<?xml version="1.0" standalone="no"?><!DOCTYPE svg PUBLIC "-//W3C//DTD SVG 1.1//EN" "http://www.w3.org/Graphics/SVG/1.1/DTD/svg11.dtd"><svg t="1779811089613" class="icon" viewBox="0 0 1024 1024" version="1.1" xmlns="http://www.w3.org/2000/svg" p-id="5252" xmlns:xlink="http://www.w3.org/1999/xlink" width="32" height="32"><path d="M285.2 934.8c-47.6 0-86.3-38.7-86.3-86.3V278.9h-37.6c-22.5-0.1-40.9-18.5-40.9-41.1v-45.3c0-22.7 18.4-41.1 41.1-41.1h173.1v-26c0-10.7 4.1-19.8 11.8-26.3 7.4-6.4 17.8-9.8 29.3-9.8h271.4c11.4 0 21.8 3.5 29.2 9.8 7.7 6.5 11.8 15.6 11.8 26.3v26h174.3c22.6 0 41 18.5 41.1 41.2v45.2c0 25.6-12.1 40.9-32.4 41h-48.6l1.1 569.7c0 47.6-38.7 86.3-86.3 86.3H285.2z m-49.4-86.5c0 27.2 22.2 49.3 49.4 49.3h452.2c27.3 0 49.4-22.1 49.4-49.3V841h-0.1V278.8h-551v569.5z m-51.6-659.9c-14.7 0-26.7 12-26.7 26.7s12 26.7 26.7 26.7h655.5c14.8 0 26.8-12 26.8-26.7s-12-26.7-26.7-26.7H184.2z m214.1-64.2c-14.1 0-23.6 5.9-26.1 16.3l-2.2 9h282.7l-2.2-9c-2.5-10.3-12.1-16.2-26.1-16.2H398.3z" fill="#707070" p-id="5253"></path><path d="M647.7 766.6c-6.2 0-11.2-5-11.2-11.2V438.8c0-6.2 5-11.2 11.2-11.2 6.2 0 11.2 5 11.2 11.2v316.6c0 6.2-5 11.2-11.2 11.2z m-135.7 0c-6.2 0-11.2-5-11.2-11.2V438.8c0-6.2 5-11.2 11.2-11.2 6.2 0 11.2 5 11.2 11.2v316.6c0 6.2-5.1 11.2-11.2 11.2z m-135.7 0c-3 0-5.9-1.2-8-3.3-2.1-2.1-3.2-4.9-3.2-7.8V438.8c0-6.2 5-11.2 11.2-11.2 6.2 0 11.2 5 11.2 11.2v316.6c0.1 6.2-5 11.2-11.2 11.2z" fill="#707070" p-id="5254"></path></svg>