<svg xmlns="http://www.w3.org/2000/svg" width="829" height="829" viewBox="192 204 829 829">
  <path d="M0,0 L1,0 L2,7 L1,8 L0,230 L-1,230 L-1,5 Z " transform="translate(315, 462)" style="fill:#B2B2B3;"/>
  <path d="M0,0 L8,0 L13,5 L14,10 L20,10 L25,14 L26,20 L31,21 L35,24 L35,31 L33,34 L4,46 L-1,45 L-10,37 L-9,29 L-2,2 Z " transform="translate(753, 770)" style="fill:#F7F7F7;"/>
  <path d="M0,0 L18,0 L28,4 L37,11 L44,21 L46,28 L46,43 L41,56 L30,69 L26,67 L13,55 L2,46 L-9,36 L-20,27 L-26,22 L-25,18 L-16,8 L-6,2 Z " transform="translate(894, 594)" style="fill:#191919;"/>
  <path d="M0,0 L13,0 L25,4 L35,11 L43,22 L46,30 L46,45 L42,56 L38,62 L33,68 L23,74 L18,76 L12,77 L2,77 L-9,73 L-19,66 L-25,58 L-30,45 L-30,31 L-26,20 L-19,11 L-8,3 Z " transform="translate(454, 546)" style="fill:#191A19;"/>
  <path d="M0,0 L10,0 L19,3 L29,9 L37,18 L41,26 L42,30 L42,46 L38,56 L32,65 L23,72 L14,76 L9,77 L-1,77 L-13,73 L-21,67 L-29,58 L-34,45 L-34,31 L-30,20 L-23,11 L-14,4 Z " transform="translate(615, 546)" style="fill:#191919;"/>
  <path d="M0,0 L25,0 L38,4 L50,11 L61,20 L73,29 L82,33 L90,34 L102,34 L124,30 L172,17 L200,10 L210,8 L223,6 L240,5 L255,5 L278,8 L299,15 L303,18 L303,24 L298,29 L290,28 L279,24 L263,21 L232,21 L210,24 L176,32 L153,39 L135,44 L111,49 L104,50 L84,50 L74,47 L62,41 L45,27 L34,20 L22,16 L0,16 L-16,21 L-31,27 L-42,33 L-50,33 L-52,31 L-52,22 L-44,17 L-23,7 L-5,1 Z " transform="translate(638, 844)" style="fill:#1C1C1C;"/>
  <path d="M0,0 L5,3 L15,12 L26,21 L37,31 L48,40 L55,46 L55,51 L46,61 L37,72 L25,86 L16,97 L7,107 L-2,118 L-11,128 L-19,138 L-32,153 L-41,164 L-54,179 L-59,185 L-99,201 L-119,209 L-126,209 L-130,204 L-129,191 L-126,180 L-123,166 L-118,147 L-116,137 L-109,128 L-100,118 L-91,107 L-78,92 L-69,81 L-57,67 L-45,53 L-36,42 L-24,28 L-15,17 L-3,3 Z M-102,141 L-105,146 L-112,174 L-111,179 L-102,187 L-96,186 L-69,175 L-67,172 L-67,165 L-73,161 L-76,161 L-77,155 L-82,151 L-88,151 L-90,145 L-94,141 Z " transform="translate(855, 629)" style="fill:#191919;"/>
  <path d="M0,0 L325,0 L326,1 L343,4 L361,10 L377,18 L389,26 L402,37 L413,49 L423,64 L431,79 L437,95 L441,112 L442,122 L442,228 L436,237 L429,241 L419,242 L412,239 L406,234 L403,228 L402,130 L400,117 L396,103 L388,87 L381,76 L371,65 L358,55 L342,47 L331,43 L322,41 L-2,41 L-17,45 L-36,54 L-48,63 L-56,70 L-66,83 L-75,99 L-80,115 L-82,124 L-82,349 L-77,365 L-69,381 L-61,391 L-52,399 L-39,407 L-32,410 L-17,415 L-4,417 L9,418 L9,480 L26,470 L45,458 L71,442 L95,427 L108,419 L112,418 L246,418 L252,421 L257,426 L260,433 L260,440 L257,448 L252,454 L246,457 L121,458 L97,473 L75,487 L56,499 L34,513 L11,528 L-1,534 L-17,534 L-26,529 L-32,522 L-35,514 L-35,452 L-44,450 L-63,442 L-77,434 L-87,426 L-97,417 L-108,403 L-116,388 L-120,378 L-124,360 L-124,121 L-121,104 L-115,86 L-107,70 L-98,56 L-87,43 L-78,34 L-65,24 L-50,15 L-37,9 L-14,2 Z " transform="translate(397, 343)" style="fill:#181918;"/>
  <path d="M0,0 L861,0 L861,2 L870,2 L887,5 L903,9 L923,16 L939,24 L950,30 L964,39 L977,49 L989,60 L1005,76 L1014,88 L1022,99 L1030,113 L1038,129 L1046,149 L1050,163 L1054,178 L1055,197 L1057,197 L1057,1057 L1056,1058 L1054,1077 L1045,1109 L1039,1124 L1029,1143 L1019,1159 L1011,1170 L999,1184 L983,1200 L972,1209 L958,1219 L943,1228 L920,1239 L893,1248 L880,1251 L863,1253 L861,1254 L0,1254 L-1,1253 L-20,1251 L-33,1248 L-53,1242 L-78,1231 L-95,1221 L-111,1210 L-126,1197 L-143,1180 L-152,1169 L-166,1148 L-172,1138 L-181,1118 L-185,1107 L-191,1088 L-194,1077 L-195,1066 L-195,1057 L-197,1057 L-197,197 L-195,197 L-195,189 L-192,170 L-183,141 L-175,123 L-165,104 L-157,92 L-147,79 L-138,69 L-123,54 L-112,45 L-101,37 L-83,26 L-67,18 L-46,10 L-23,4 L-10,2 L0,2 Z M200,343 L183,346 L163,352 L146,360 L131,370 L118,381 L109,390 L99,403 L87,424 L80,443 L77,459 L76,464 L76,703 L80,721 L85,733 L94,749 L105,762 L116,772 L131,782 L148,790 L162,795 L165,795 L165,857 L169,866 L175,873 L183,877 L199,877 L213,870 L234,856 L256,842 L275,830 L297,816 L316,804 L321,801 L446,800 L454,795 L458,790 L460,783 L460,776 L457,769 L452,764 L446,761 L312,761 L305,764 L277,781 L258,793 L232,809 L211,822 L209,823 L209,761 L191,759 L179,757 L166,752 L154,746 L142,737 L133,727 L125,713 L119,696 L119,470 L120,468 L120,458 L125,442 L134,426 L142,416 L148,409 L161,399 L178,390 L191,386 L198,384 L522,384 L537,388 L553,395 L566,404 L575,412 L586,426 L594,441 L599,455 L601,464 L602,473 L603,571 L608,579 L615,584 L625,585 L633,582 L638,578 L642,571 L642,465 L640,450 L635,432 L627,414 L618,399 L610,389 L599,377 L585,366 L568,356 L553,350 L534,345 L526,344 L525,343 Z M257,546 L247,550 L237,558 L230,568 L227,577 L227,591 L232,604 L238,612 L248,619 L259,623 L269,623 L277,621 L287,616 L293,611 L299,602 L303,591 L303,576 L299,566 L291,556 L280,549 L270,546 Z M418,546 L404,550 L393,559 L386,570 L384,577 L384,591 L389,604 L398,614 L407,620 L417,623 L427,623 L437,620 L447,614 L454,606 L459,596 L460,592 L460,576 L456,566 L450,558 L443,552 L436,548 L428,546 Z M697,594 L685,599 L677,606 L671,613 L672,617 L685,628 L699,640 L714,653 L724,662 L728,662 L738,650 L743,637 L743,622 L740,613 L733,604 L723,597 L715,594 Z M658,629 L651,636 L643,646 L630,661 L621,672 L609,686 L600,697 L591,707 L582,718 L571,731 L560,744 L548,758 L542,766 L538,783 L533,802 L530,818 L528,826 L528,833 L532,838 L539,838 L574,824 L599,814 L608,804 L617,793 L630,778 L639,767 L651,753 L664,738 L673,727 L682,717 L691,706 L703,692 L712,681 L713,680 L713,675 L699,663 L684,650 L669,637 L659,629 Z M441,844 L426,848 L407,856 L390,865 L389,866 L389,875 L391,877 L399,877 L415,869 L433,862 L441,860 L463,860 L475,864 L486,871 L499,882 L510,889 L521,893 L525,894 L545,894 L567,890 L587,885 L610,878 L638,871 L663,866 L673,865 L704,865 L720,868 L734,873 L741,872 L744,868 L744,862 L738,858 L719,852 L696,849 L681,849 L664,850 L651,852 L620,859 L565,874 L543,878 L531,878 L520,876 L508,869 L494,857 L481,849 L471,845 L466,844 Z " transform="translate(197, 0)" style="fill:#FDFCFC;"/>
</svg>