<svg xmlns="http://www.w3.org/2000/svg" width="1468" height="307" viewBox="0 0 1468 307" role="img" aria-label="Memora wordmark">
  <path fill="#0F171E" fill-rule="evenodd" d="
      M1294 118 L1286 126 L1286 127 L1278 136 L1277 139 L1275 141 L1270 151 L1270 153 L1267 159 L1267 161 L1266 162 L1266 165 L1265 166 L1265 170 L1264 171 L1264 175 L1263 176 L1263 183 L1262 184 L1262 204 L1263 205 L1263 212 L1264 213 L1264 216 L1265 217 L1266 224 L1267 225 L1268 230 L1271 235 L1271 237 L1274 243 L1278 248 L1279 251 L1287 260 L1287 261 L1288 261 L1289 263 L1298 271 L1299 271 L1307 277 L1319 283 L1321 283 L1322 284 L1324 284 L1328 286 L1332 286 L1333 287 L1337 287 L1338 288 L1344 288 L1345 289 L1362 289 L1363 288 L1370 288 L1371 287 L1378 286 L1379 285 L1384 284 L1387 282 L1389 282 L1391 280 L1396 278 L1398 276 L1402 274 L1408 268 L1409 268 L1410 266 L1415 261 L1417 257 L1419 255 L1420 255 L1421 256 L1421 285 L1450 285 L1450 100 L1438 100 L1437 101 L1435 101 L1434 100 L1422 100 L1421 101 L1421 130 L1420 131 L1418 130 L1417 127 L1414 124 L1414 123 L1404 113 L1403 113 L1397 108 L1385 102 L1383 102 L1379 100 L1376 100 L1375 99 L1372 99 L1371 98 L1366 98 L1365 97 L1342 97 L1341 98 L1336 98 L1335 99 L1331 99 L1330 100 L1327 100 L1326 101 L1324 101 L1321 103 L1319 103 L1316 105 L1314 105 L1308 108 L1306 110 L1305 110 L1303 112 L1299 114 L1295 118 Z
      M991 97 L990 98 L986 98 L985 99 L981 99 L980 100 L977 100 L976 101 L974 101 L973 102 L968 103 L965 105 L963 105 L957 108 L955 110 L952 111 L950 113 L946 115 L942 119 L941 119 L927 134 L927 135 L923 140 L922 143 L920 145 L917 151 L917 153 L914 159 L914 161 L913 162 L913 165 L911 169 L911 173 L910 174 L910 180 L909 181 L909 206 L910 207 L910 213 L911 214 L912 221 L913 222 L913 224 L914 225 L915 230 L917 233 L917 235 L920 241 L924 246 L925 249 L927 251 L927 252 L932 257 L932 258 L939 265 L940 265 L949 273 L955 276 L957 278 L963 280 L965 282 L967 282 L968 283 L970 283 L974 285 L981 286 L982 287 L987 287 L988 288 L994 288 L995 289 L1015 289 L1016 288 L1022 288 L1023 287 L1027 287 L1028 286 L1031 286 L1032 285 L1035 285 L1036 284 L1041 283 L1055 276 L1057 274 L1058 274 L1060 272 L1064 270 L1068 266 L1069 266 L1080 255 L1080 254 L1083 251 L1083 250 L1087 245 L1094 231 L1094 229 L1096 226 L1096 223 L1098 219 L1098 216 L1099 215 L1099 211 L1100 210 L1100 204 L1101 203 L1101 183 L1100 182 L1100 176 L1099 175 L1098 166 L1097 165 L1097 163 L1096 162 L1096 160 L1095 159 L1094 154 L1089 144 L1087 142 L1086 139 L1081 133 L1081 132 L1077 128 L1077 127 L1075 125 L1074 125 L1070 121 L1070 120 L1069 120 L1061 113 L1051 108 L1049 106 L1047 106 L1045 104 L1043 104 L1042 103 L1040 103 L1039 102 L1037 102 L1033 100 L1030 100 L1029 99 L1025 99 L1024 98 L1019 98 L1018 97 Z
      M59 19 L58 21 L58 28 L57 29 L57 34 L56 35 L56 41 L55 42 L55 48 L54 49 L54 54 L53 55 L53 61 L52 62 L52 67 L51 68 L51 75 L50 76 L50 82 L49 83 L49 88 L48 89 L48 95 L47 96 L47 101 L46 102 L46 107 L45 108 L45 114 L44 115 L44 120 L43 121 L43 127 L42 128 L42 134 L41 135 L41 141 L40 142 L40 147 L39 148 L39 154 L38 155 L38 161 L37 162 L37 168 L36 169 L36 174 L35 175 L35 181 L34 182 L34 187 L33 188 L33 195 L32 196 L32 201 L31 202 L31 207 L30 208 L30 213 L29 214 L29 220 L28 221 L28 227 L27 228 L27 233 L26 234 L26 240 L25 241 L25 247 L24 248 L24 253 L23 254 L23 260 L22 261 L22 266 L21 267 L21 273 L20 274 L20 279 L19 280 L19 285 L50 285 L50 283 L51 282 L51 276 L52 275 L52 269 L53 268 L53 263 L54 262 L54 257 L55 256 L55 250 L56 249 L56 243 L57 242 L57 237 L58 236 L58 231 L59 230 L59 224 L60 223 L60 218 L61 217 L61 210 L62 209 L62 204 L63 203 L63 197 L64 196 L64 190 L65 189 L65 184 L66 183 L66 178 L67 177 L67 171 L68 170 L68 165 L69 164 L69 158 L70 157 L70 151 L71 150 L71 144 L72 143 L72 138 L73 137 L73 132 L74 131 L74 126 L75 125 L75 119 L76 118 L76 112 L77 111 L77 105 L78 104 L78 98 L79 97 L79 92 L80 91 L80 85 L81 84 L81 80 L82 79 L84 80 L87 86 L87 88 L92 97 L92 99 L94 102 L94 104 L99 113 L99 115 L103 122 L103 124 L107 131 L107 133 L111 140 L111 142 L117 153 L117 155 L125 171 L125 173 L128 178 L128 180 L135 193 L135 195 L143 211 L143 213 L146 218 L146 220 L158 244 L158 246 L162 254 L164 255 L188 255 L198 235 L198 233 L205 220 L205 218 L216 196 L216 194 L222 183 L222 181 L229 168 L229 166 L240 144 L240 142 L245 133 L245 131 L250 122 L250 120 L256 109 L256 107 L262 96 L262 94 L269 80 L271 79 L272 80 L272 87 L273 88 L273 94 L274 95 L274 101 L275 102 L275 109 L276 110 L276 116 L277 117 L277 124 L278 125 L278 131 L279 132 L279 139 L280 140 L280 146 L281 147 L281 153 L282 154 L282 161 L283 162 L283 168 L284 169 L284 175 L285 176 L285 183 L286 184 L286 190 L287 191 L287 197 L288 198 L288 204 L289 205 L289 211 L290 212 L290 219 L291 220 L291 226 L292 227 L292 234 L293 235 L293 240 L294 241 L294 248 L295 249 L295 255 L296 256 L296 262 L297 263 L297 270 L298 271 L298 277 L299 278 L299 285 L331 285 L331 280 L330 279 L330 272 L329 271 L329 265 L328 264 L328 258 L327 257 L327 250 L326 249 L326 243 L325 242 L325 235 L324 234 L324 229 L323 228 L323 222 L322 221 L322 215 L321 214 L321 207 L320 206 L320 200 L319 199 L319 193 L318 192 L318 185 L317 184 L317 178 L316 177 L316 170 L315 169 L315 163 L314 162 L314 156 L313 155 L313 148 L312 147 L312 141 L311 140 L311 134 L310 133 L310 127 L309 126 L309 119 L308 118 L308 112 L307 111 L307 106 L306 105 L306 98 L305 97 L305 92 L304 91 L304 84 L303 83 L303 76 L302 75 L302 68 L301 67 L301 62 L300 61 L300 54 L299 53 L299 46 L298 45 L298 39 L297 38 L297 32 L296 31 L296 24 L295 23 L295 19 L265 19 L264 20 L262 24 L262 26 L256 37 L256 39 L243 65 L243 67 L237 78 L237 80 L234 84 L234 86 L225 104 L225 106 L218 119 L218 121 L208 141 L208 143 L203 152 L203 154 L197 165 L197 167 L190 180 L190 182 L186 189 L186 191 L176 211 L174 210 L174 208 L164 188 L164 186 L160 179 L160 177 L154 166 L154 164 L151 159 L151 157 L146 148 L146 146 L142 139 L142 137 L138 130 L138 128 L134 121 L134 119 L132 117 L132 115 L129 110 L129 108 L127 106 L127 104 L125 101 L125 99 L120 90 L120 88 L116 81 L116 79 L111 70 L111 68 L107 61 L107 59 L104 54 L104 52 L97 39 L97 37 L93 30 L93 28 L90 23 L90 21 L88 19 Z
      M436 100 L435 101 L430 102 L425 105 L423 105 L415 109 L413 111 L410 112 L403 118 L402 118 L388 133 L388 134 L384 139 L383 142 L381 144 L378 150 L378 152 L376 155 L376 157 L374 161 L374 164 L373 165 L373 168 L372 169 L372 172 L371 173 L371 178 L370 179 L370 207 L371 208 L371 213 L372 214 L372 218 L373 219 L373 222 L374 223 L374 225 L375 226 L376 231 L378 234 L378 236 L381 242 L383 244 L384 247 L386 249 L388 253 L392 257 L392 258 L393 258 L394 260 L400 266 L404 268 L406 270 L406 271 L409 272 L414 276 L426 282 L428 282 L429 283 L431 283 L432 284 L434 284 L438 286 L442 286 L443 287 L447 287 L448 288 L455 288 L456 289 L475 289 L476 288 L482 288 L483 287 L488 287 L489 286 L492 286 L496 284 L499 284 L502 282 L504 282 L516 276 L518 274 L522 272 L526 268 L527 268 L539 256 L539 255 L544 249 L545 246 L548 243 L547 242 L541 239 L539 239 L524 231 L521 231 L521 232 L516 238 L516 239 L506 249 L502 251 L499 254 L493 257 L491 257 L490 258 L488 258 L484 260 L481 260 L480 261 L475 261 L474 262 L459 262 L458 261 L453 261 L452 260 L448 260 L447 259 L444 259 L441 257 L439 257 L431 253 L428 250 L424 248 L416 240 L416 239 L414 238 L414 237 L408 229 L406 225 L406 223 L404 220 L404 218 L403 217 L403 214 L402 213 L402 210 L401 209 L401 204 L402 203 L554 203 L555 202 L555 182 L554 181 L554 174 L553 173 L553 168 L552 167 L552 164 L551 163 L551 160 L550 159 L550 157 L549 156 L548 151 L541 137 L539 135 L537 131 L533 127 L533 126 L523 116 L522 116 L519 113 L518 113 L516 111 L513 110 L511 108 L501 103 L499 103 L493 100 L490 100 L489 99 L485 99 L484 98 L479 98 L478 97 L451 97 L450 98 L445 98 L444 99 L441 99 L440 100 Z
      M601 101 L601 285 L631 285 L631 172 L632 171 L632 165 L633 164 L634 157 L637 151 L637 149 L641 144 L642 141 L650 133 L651 133 L653 131 L661 127 L663 127 L664 126 L667 126 L668 125 L685 125 L686 126 L689 126 L690 127 L692 127 L696 129 L702 134 L703 134 L704 136 L709 141 L709 142 L711 144 L714 150 L714 152 L716 156 L716 159 L717 160 L717 166 L718 167 L718 285 L748 285 L748 173 L749 172 L749 165 L750 164 L750 161 L751 160 L751 158 L752 157 L753 152 L756 146 L758 144 L758 143 L763 138 L763 137 L772 130 L778 127 L780 127 L781 126 L784 126 L785 125 L802 125 L803 126 L806 126 L807 127 L809 127 L817 131 L826 140 L827 143 L829 145 L831 149 L832 154 L833 155 L833 158 L834 159 L834 164 L835 165 L835 285 L865 285 L865 158 L864 157 L864 152 L863 151 L863 147 L862 146 L862 143 L861 142 L861 140 L860 139 L859 134 L855 126 L850 120 L850 119 L845 114 L845 113 L844 113 L840 109 L839 109 L837 107 L834 106 L830 103 L828 103 L825 101 L823 101 L819 99 L816 99 L815 98 L810 98 L809 97 L790 97 L789 98 L784 98 L783 99 L780 99 L779 100 L774 101 L771 103 L769 103 L767 105 L762 107 L759 110 L758 110 L747 121 L747 122 L743 127 L742 130 L741 131 L739 131 L736 125 L727 113 L726 113 L718 106 L713 104 L711 102 L709 102 L708 101 L706 101 L702 99 L699 99 L698 98 L692 98 L691 97 L677 97 L676 98 L671 98 L670 99 L667 99 L666 100 L661 101 L658 103 L656 103 L654 105 L651 106 L648 109 L647 109 L636 120 L636 121 L632 126 L630 125 L630 100 L602 100 Z
      M994 125 L1016 125 L1017 126 L1021 126 L1022 127 L1024 127 L1025 128 L1030 129 L1036 132 L1038 134 L1041 135 L1044 138 L1048 140 L1049 142 L1056 149 L1056 150 L1059 153 L1060 156 L1062 158 L1065 164 L1065 166 L1067 169 L1067 172 L1068 173 L1068 176 L1069 177 L1069 181 L1070 182 L1070 204 L1069 205 L1069 209 L1068 210 L1067 217 L1063 224 L1063 226 L1062 228 L1060 230 L1058 234 L1055 237 L1055 238 L1045 248 L1044 248 L1036 254 L1032 256 L1030 256 L1027 258 L1025 258 L1024 259 L1021 259 L1020 260 L1016 260 L1015 261 L995 261 L994 260 L990 260 L989 259 L987 259 L983 257 L980 257 L972 253 L970 251 L966 249 L959 243 L959 242 L952 235 L952 234 L950 232 L949 229 L947 227 L944 221 L944 219 L942 215 L942 212 L941 211 L941 208 L940 207 L940 200 L939 199 L939 188 L940 187 L940 180 L941 179 L941 175 L943 171 L943 168 L946 163 L946 161 L947 159 L949 157 L949 156 L951 154 L953 150 L967 136 L970 135 L975 131 L977 131 L982 128 L985 128 L986 127 L988 127 L989 126 L993 126 Z
      M1346 125 L1368 125 L1369 126 L1374 126 L1375 127 L1380 128 L1383 130 L1385 130 L1389 133 L1395 136 L1407 148 L1407 149 L1410 152 L1411 155 L1413 157 L1414 159 L1414 161 L1416 164 L1417 169 L1418 170 L1418 173 L1419 174 L1419 178 L1420 179 L1420 185 L1421 186 L1421 200 L1420 201 L1420 208 L1419 209 L1418 216 L1415 222 L1415 224 L1412 230 L1410 232 L1409 235 L1406 238 L1406 239 L1396 249 L1395 249 L1390 253 L1385 255 L1383 257 L1381 257 L1380 258 L1378 258 L1374 260 L1370 260 L1369 261 L1360 261 L1359 262 L1357 262 L1356 261 L1347 261 L1346 260 L1342 260 L1341 259 L1339 259 L1338 258 L1333 257 L1323 252 L1315 245 L1314 245 L1313 243 L1311 242 L1311 241 L1303 232 L1296 218 L1296 215 L1295 214 L1295 211 L1294 210 L1294 206 L1293 205 L1293 182 L1294 181 L1294 176 L1295 175 L1295 173 L1297 169 L1297 166 L1300 161 L1300 159 L1304 154 L1305 151 L1308 148 L1308 147 L1317 138 L1318 138 L1324 133 L1332 129 L1334 129 L1335 128 L1337 128 L1341 126 L1345 126 Z
      M1241 97 L1232 97 L1231 98 L1224 98 L1223 99 L1219 99 L1218 100 L1215 100 L1214 101 L1212 101 L1211 102 L1209 102 L1206 104 L1204 104 L1202 105 L1200 107 L1199 107 L1197 109 L1193 111 L1186 118 L1186 119 L1181 125 L1178 131 L1176 130 L1176 101 L1175 100 L1147 100 L1146 101 L1147 102 L1146 104 L1146 285 L1176 285 L1176 185 L1177 184 L1177 176 L1178 175 L1178 171 L1179 170 L1179 166 L1180 165 L1181 160 L1184 154 L1186 152 L1187 149 L1192 144 L1192 143 L1198 138 L1204 135 L1206 133 L1208 132 L1210 132 L1211 131 L1213 131 L1214 130 L1221 129 L1222 128 L1241 128 L1242 127 L1242 98 Z
      M402 173 L403 172 L403 169 L404 168 L405 163 L409 155 L411 153 L412 150 L414 148 L414 147 L426 135 L427 135 L432 131 L438 128 L440 128 L441 127 L443 127 L447 125 L450 125 L451 124 L457 124 L458 123 L469 123 L470 124 L476 124 L477 125 L480 125 L481 126 L484 126 L485 127 L487 127 L497 132 L499 134 L500 134 L511 145 L511 146 L514 149 L520 161 L520 163 L521 164 L521 167 L522 168 L522 171 L523 172 L523 177 L522 178 L403 178 L402 177 Z
  "/>
</svg>
